<svg viewBox="0 0 24 24" xmlns="http://www.w3.org/2000/svg"><g stroke="none" stroke-width="1" fill="none" fill-rule="evenodd"><g><g><rect x="0" y="0" width="24" height="24"></rect><g transform="translate(1.000000, 1.000000)" fill="#ffffff"><path d="M7.79479812,14.6617466 C7.79479812,13.5104352 8.05440362,12.4231878 8.57361464,11.463608 C3.7697433,11.7834679 0.00429402553,15.6853907 0.00429402553,20.4187649 L10.8455137,20.4187649 C8.96325678,19.1388642 7.79479812,17.0284338 7.79479812,14.6617466 L7.79479812,14.6617466 Z M9.09329342,10.1841681 L9.41791725,10.1841681 C10.4568071,8.96879249 11.8848712,8.13734097 13.442972,7.81748101 C13.9621831,7.05009366 14.2217886,6.09051378 14.2217886,5.13093393 C14.2217886,2.31625849 11.8848712,0.0136355262 9.02827509,0.0136355262 C6.17167896,0.0136355262 3.83476163,2.31625849 3.83476163,5.13093393 C3.89977994,7.88108428 6.23669729,10.1841681 9.09329342,10.1841681 L9.09329342,10.1841681 Z"></path><path d="M20.8321401,11.3654377 C20.079518,10.6238604 19.077581,10.2159698 18.010158,10.2159698 C16.9432028,10.2159698 15.9403303,10.6243213 15.1877082,11.3658986 L12.4022112,14.1100573 C12.2225923,14.2870404 12.2225923,14.5760205 12.4022112,14.7530035 C12.4896819,14.8387297 12.6052181,14.8862017 12.7287061,14.8862017 C12.8521941,14.8862017 12.968198,14.8391906 13.055201,14.7530035 L15.8402302,12.0088448 C16.4188464,11.4387197 17.189711,11.1243905 18.010158,11.1243905 C18.830605,11.1243905 19.6010019,11.4382588 20.1796181,12.0083839 C21.3761422,13.1873489 21.3761422,15.105126 20.1796181,16.2840911 L15.5146708,20.8810409 L10.848788,16.284552 C9.65226383,15.1055869 9.65226383,13.1873489 10.848788,12.0093056 C11.4260009,11.4405633 12.1926558,11.126695 13.0065541,11.126695 C13.15343,11.126695 13.3026447,11.1368346 13.4499884,11.1575748 C13.471973,11.1608011 13.4934899,11.1621837 13.5154745,11.1621837 C13.7432724,11.1621837 13.9397307,10.9939577 13.972006,10.7713462 C14.0075555,10.5229247 13.8312109,10.2924781 13.5795573,10.2574502 C13.3938575,10.2311793 13.2048834,10.2178134 13.0173125,10.2178134 C12.5953951,10.2178134 12.1809618,10.2814166 11.7843033,10.4072405 C11.1813636,10.5989721 10.6467166,10.9215974 10.1957982,11.3654377 C8.6400362,12.8983688 8.6400362,15.3936452 10.196266,16.9270372 L15.1877082,21.8456906 C15.2747111,21.9314168 15.390715,21.9788888 15.514203,21.9788888 C15.6376911,21.9788888 15.7532272,21.9318777 15.8406979,21.8456906 L20.8316723,16.9274981 C22.3883698,15.3941061 22.3879021,12.8992906 20.8321401,11.3654377 L20.8321401,11.3654377 L20.8321401,11.3654377 Z"></path></g></g></g></g></svg>