<svg viewBox="0 0 24 24" xmlns="http://www.w3.org/2000/svg">
  <g stroke="none" stroke-width="1" fill="none" fill-rule="evenodd">
  <g transform="translate(-3.000000, -1.000000)">
  <g>
  <rect x="0" y="0" width="24" height="24"></rect>
  <path d="M14.75506,8.89354188 C14.3656222,8.89354188 14.1708681,8.68643468 13.9761845,8.47940237 C13.7814304,8.27229517 13.5866763,8.0652379 13.5866763,7.65102351 L13.5866763,1.0239678 L5.10579354,1.03100615 C3.94606824,1.03197954 3.0064385,2.03237366 3.00662622,3.2659568 L3.00662622,20.8539947 C3.00662622,22.0259798 3.89982002,22.9760572 5.00163531,22.9760572 L18.9896705,22.9760572 C20.0926355,22.9760572 20.9867679,22.0249814 20.9867679,20.8517733 L20.9867679,8.89354188 L14.75506,8.89354188 L14.75506,8.89354188 Z M16.5100288,17.4489558 C16.5100288,17.8769972 16.1808006,18.2271926 15.778387,18.2271926 L8.47604791,18.2271926 C8.07363439,18.2271926 7.74440613,17.8769973 7.74440613,17.4489558 L7.74440613,17.3485969 C7.74440613,16.9205554 8.07363436,16.57036 8.47604791,16.57036 L15.778387,16.57036 C16.1808005,16.57036 16.5100288,16.9205554 16.5100288,17.3485969 L16.5100288,17.4489558 L16.5100288,17.4489558 Z M16.5100288,14.3166404 C16.5100288,14.7446819 16.1808006,15.0948773 15.778387,15.0948773 L8.47604791,15.0948773 C8.07363439,15.0948773 7.74440613,14.744682 7.74440613,14.3166404 L7.74440613,14.2162816 C7.74440613,13.7882401 8.07363436,13.4380447 8.47604791,13.4380447 L15.778387,13.4380447 C16.1808005,13.4380447 16.5100288,13.78824 16.5100288,14.2162816 L16.5100288,14.3166404 L16.5100288,14.3166404 Z M16.5100288,11.2217631 C16.5100288,11.6498046 16.1808006,12 15.778387,12 L8.47604791,12 C8.07363439,12 7.74440613,11.6498047 7.74440613,11.2217631 L7.74440613,11.1214043 C7.74440613,10.6933628 8.07363436,10.3431674 8.47604791,10.3431674 L15.778387,10.3431674 C16.1808005,10.3431674 16.5100288,10.6933628 16.5100288,11.1214043 L16.5100288,11.2217631 L16.5100288,11.2217631 Z" fill="#ffffff"></path>
  <path d="M15.1446385,1.43818217 L15.1446385,7.23680915 L20.5973067,7.23680915 C20.5973067,7.23680915 15.3393926,1.64528937 15.1446385,1.43818217 L15.1446385,1.43818217 Z" fill="#ffffff"></path>
  </g></g></g>
</svg>