<svg viewBox="0 0 24 24" xmlns="http://www.w3.org/2000/svg"><g stroke="none" stroke-width="1" fill="none" fill-rule="evenodd"><g><g><rect x="0" y="0" width="24" height="24"></rect><path d="M22.999957,19.5013331 C22.999957,20.3294015 22.2960007,21 21.4276676,21 L2.57231096,21 C1.70399931,21 1,20.3293795 1,19.5013331 L1,15.0011354 C1,14.7220141 1.10114834,14.4759647 1.2405818,14.2524172 C1.10116982,14.0274194 1,13.7798976 1,13.5008863 L4.14167857,4.50009522 C4.14318248,3.67057652 4.84707437,3 5.71398954,3 L18.284614,3 C19.1529256,3 19.8569035,3.67055454 19.8569035,4.50009522 L23,13.5008643 C23,13.7798757 22.9003126,14.0273974 22.7594397,14.2523952 C22.9003556,14.4759207 23,14.7219922 23,15.0010914 L22.999957,19.5013331 L22.999957,19.5013331 L22.999957,19.5013331 L22.999957,19.5013331 Z M18.2845925,7.50193376 C18.2845925,6.67074499 17.5820756,6.00021242 16.7153538,6.00021242 L7.28466769,6.00021242 C6.41642049,6.00021242 5.71392508,6.67074499 5.71392508,7.50193376 L4.14313951,13.5008424 L8.85833217,13.5008424 L8.85833217,16.4545566 C8.85833217,17.2827788 9.56235297,17.9547616 10.4291392,17.9547616 L13.5693354,17.9547616 C14.4374966,17.9547616 15.1416249,17.2827568 15.1416249,16.4545566 L15.1416249,13.5008643 L19.8568605,13.5008643 L18.2845925,7.50193376 L18.2845925,7.50193376 L18.2845925,7.50193376 L18.2845925,7.50193376 Z M7.23632789,10.500608 L16.7153753,10.500608 L16.7153753,11.9542489 L7.23632789,11.9542489 L7.23632789,10.500608 L7.23632789,10.500608 L7.23632789,10.500608 L7.23632789,10.500608 Z M7.23632789,7.50193376 L16.7153753,7.50193376 L16.7153753,8.95557471 L7.23632789,8.95557471 L7.23632789,7.50193376 L7.23632789,7.50193376 L7.23632789,7.50193376 L7.23632789,7.50193376 Z" fill="#ffffff"></path></g></g></g></svg>