<svg enable-background="new 0 0 53 42" height="42" viewBox="0 0 53 42" width="53" xmlns="http://www.w3.org/2000/svg"><g fill="#222138" opacity=".49"><path d="m49.344 3c.542 0 1.25-.042 1.25.5v34c0 .542-.708 1.5-1.25 1.5h-46c-.542 0-.75-.958-.75-1.5v-34c0-.542.208-.5.75-.5h46.25m-.25-2h-46c-1.65 0-2.75.85-2.75 2.5v34c0 1.65 1.1 3.5 2.75 3.5h46c1.65 0 3.25-1.85 3.25-3.5v-34c0-1.65-1.6-2.5-3.25-2.5z"/><circle cx="38.094" cy="12.502" r="4.398"/><path d="m50.594 26.972-7.135-5.918c-1.076-.888-2.726-.854-3.749.084l-7.224 6.582-14.235-15.51c-1.073-1.173-2.826-1.186-3.917-.024l-12.74 13.736v14.078h48.993c.115 0 .007-.021.007-.029z"/></g><g fill="#31d0c6"><path d="m49.344 2c.542 0 1.25-.042 1.25.5v34c0 .542-.708 1.5-1.25 1.5h-46c-.542 0-.75-.958-.75-1.5v-34c0-.542.208-.5.75-.5h46.25m-.25-2h-46c-1.65 0-2.75.85-2.75 2.5v34c0 1.65 1.1 3.5 2.75 3.5h46c1.65 0 3.25-1.85 3.25-3.5v-34c0-1.65-1.6-2.5-3.25-2.5z"/><circle cx="38.094" cy="11.502" r="4.398"/><path d="m50.594 25.972-7.135-5.918c-1.076-.888-2.726-.854-3.749.084l-7.224 6.582-14.235-15.51c-1.073-1.173-2.826-1.186-3.917-.024l-12.74 13.736v14.078h48.993c.115 0 .007-.021.007-.029z"/></g></svg>