<svg viewBox="0 0 92 92" xmlns="http://www.w3.org/2000/svg"><rect fill="#f6f6f6" height="92" rx="3" width="92"/><g fill="#8f8f8f"><path d="m0 0h5.501v5.633h-5.501z" transform="matrix(0 1 -1 0 14.746 42.923)"/><path d="m0 0h5.501v5.633h-5.501z" transform="matrix(0 1 -1 0 31.647 42.923)"/><path d="m0 0h5.501v5.633h-5.501z" transform="matrix(0 1 -1 0 48.547 42.923)"/><path d="m0 0h5.501v5.633h-5.501z" transform="matrix(0 1 -1 0 65.447 42.923)"/><path d="m0 0h5.501v5.633h-5.501z" transform="matrix(0 1 -1 0 23.196 42.923)"/><path d="m0 0h5.501v5.633h-5.501z" transform="matrix(0 1 -1 0 40.097 42.923)"/><path d="m0 0h5.501v5.633h-5.501z" transform="matrix(0 1 -1 0 56.997 42.923)"/><path d="m0 0h5.501v5.633h-5.501z" transform="matrix(0 1 -1 0 73.897 42.923)"/><path d="m0 0h5.501v5.633h-5.501z" transform="matrix(0 1 -1 0 82.348 42.923)"/><path d="m0 0h5.501v5.633h-5.501z" transform="matrix(0 1 -1 0 14.746 9)"/><path d="m0 0h5.501v5.633h-5.501z" transform="matrix(0 1 -1 0 31.647 9)"/><path d="m0 0h5.501v5.633h-5.501z" transform="matrix(0 1 -1 0 48.547 9)"/><path d="m0 0h5.501v5.633h-5.501z" transform="matrix(0 1 -1 0 65.447 9)"/><path d="m0 0h5.501v5.633h-5.501z" transform="matrix(0 1 -1 0 23.196 9)"/><path d="m0 0h5.501v5.633h-5.501z" transform="matrix(0 1 -1 0 40.097 9)"/><path d="m0 0h5.501v5.633h-5.501z" transform="matrix(0 1 -1 0 56.997 9)"/><path d="m0 0h5.501v5.633h-5.501z" transform="matrix(0 1 -1 0 73.897 9)"/><path d="m0 0h5.501v5.633h-5.501z" transform="matrix(0 1 -1 0 82.348 9)"/><path d="m0 0h5.501v5.633h-5.501z" transform="matrix(0 1 -1 0 14.746 76.847)"/><path d="m0 0h5.501v5.633h-5.501z" transform="matrix(0 1 -1 0 31.647 76.847)"/><path d="m0 0h5.501v5.633h-5.501z" transform="matrix(0 1 -1 0 48.547 76.847)"/><path d="m0 0h5.501v5.633h-5.501z" transform="matrix(0 1 -1 0 65.447 76.847)"/><path d="m0 0h5.501v5.633h-5.501z" transform="matrix(0 1 -1 0 23.196 76.847)"/><path d="m0 0h5.501v5.633h-5.501z" transform="matrix(0 1 -1 0 40.097 76.847)"/><path d="m0 0h5.501v5.633h-5.501z" transform="matrix(0 1 -1 0 56.997 76.847)"/><path d="m0 0h5.501v5.633h-5.501z" transform="matrix(0 1 -1 0 73.897 76.847)"/><path d="m0 0h5.501v5.633h-5.501z" transform="matrix(0 1 -1 0 82.348 76.847)"/><path d="m0 0h5.501v5.633h-5.501z" transform="matrix(-1 0 0 -1 48.425 14.634)"/><path d="m0 0h5.501v5.633h-5.501z" transform="matrix(-1 0 0 -1 48.425 31.534)"/><path d="m0 0h5.501v5.633h-5.501z" transform="matrix(-1 0 0 -1 48.425 48.434)"/><path d="m0 0h5.501v5.633h-5.501z" transform="matrix(-1 0 0 -1 48.425 65.334)"/><path d="m0 0h5.501v5.633h-5.501z" transform="matrix(-1 0 0 -1 48.425 23.084)"/><path d="m0 0h5.501v5.633h-5.501z" transform="matrix(-1 0 0 -1 48.425 39.984)"/><path d="m0 0h5.501v5.633h-5.501z" transform="matrix(-1 0 0 -1 48.425 56.885)"/><path d="m0 0h5.501v5.633h-5.501z" transform="matrix(-1 0 0 -1 48.425 73.785)"/><path d="m0 0h5.501v5.633h-5.501z" transform="matrix(-1 0 0 -1 48.425 82.235)"/><path d="m0 0h5.501v5.633h-5.501z" transform="matrix(-1 0 0 -1 14.501 14.634)"/><path d="m0 0h5.501v5.633h-5.501z" transform="matrix(-1 0 0 -1 14.501 31.534)"/><path d="m0 0h5.501v5.633h-5.501z" transform="matrix(-1 0 0 -1 14.501 48.434)"/><path d="m0 0h5.501v5.633h-5.501z" transform="matrix(-1 0 0 -1 14.501 65.334)"/><path d="m0 0h5.501v5.633h-5.501z" transform="matrix(-1 0 0 -1 14.501 23.084)"/><path d="m0 0h5.501v5.633h-5.501z" transform="matrix(-1 0 0 -1 14.501 39.984)"/><path d="m0 0h5.501v5.633h-5.501z" transform="matrix(-1 0 0 -1 14.501 56.885)"/><path d="m0 0h5.501v5.633h-5.501z" transform="matrix(-1 0 0 -1 14.501 73.785)"/><path d="m0 0h5.501v5.633h-5.501z" transform="matrix(-1 0 0 -1 14.501 82.235)"/><path d="m0 0h5.501v5.633h-5.501z" transform="matrix(-1 0 0 -1 82.348 14.634)"/><path d="m0 0h5.501v5.633h-5.501z" transform="matrix(-1 0 0 -1 82.348 31.534)"/><path d="m0 0h5.501v5.633h-5.501z" transform="matrix(-1 0 0 -1 82.348 48.434)"/><path d="m0 0h5.501v5.633h-5.501z" transform="matrix(-1 0 0 -1 82.348 65.334)"/><path d="m0 0h5.501v5.633h-5.501z" transform="matrix(-1 0 0 -1 82.348 23.084)"/><path d="m0 0h5.501v5.633h-5.501z" transform="matrix(-1 0 0 -1 82.348 39.984)"/><path d="m0 0h5.501v5.633h-5.501z" transform="matrix(-1 0 0 -1 82.348 56.885)"/><path d="m0 0h5.501v5.633h-5.501z" transform="matrix(-1 0 0 -1 82.348 73.785)"/><path d="m0 0h5.501v5.633h-5.501z" transform="matrix(-1 0 0 -1 82.348 82.235)"/></g></svg>