<svg viewBox="0 0 92 92" xmlns="http://www.w3.org/2000/svg"><rect fill="#f6f6f6" height="92" rx="3" width="92"/><g fill="#8f8f8f"><path d="m6 6h10v10h-10z"/><path d="m6 26h10v10h-10z"/><path d="m6 46h10v10h-10z"/><path d="m6 66h10v10h-10z"/><path d="m26 6h10v10h-10z"/><path d="m26 26h10v10h-10z"/><path d="m26 46h10v10h-10z"/><path d="m26 66h10v10h-10z"/><path d="m46 6h10v10h-10z"/><path d="m46 26h10v10h-10z"/><path d="m46 46h10v10h-10z"/><path d="m46 66h10v10h-10z"/><path d="m66 6h10v10h-10z"/><path d="m66 26h10v10h-10z"/><path d="m66 46h10v10h-10z"/><path d="m66 66h10v10h-10z"/><path d="m16 16h10v10h-10z"/><path d="m16 36h10v10h-10z"/><path d="m16 56h10v10h-10z"/><path d="m16 76h10v10h-10z"/><path d="m36 16h10v10h-10z"/><path d="m36 36h10v10h-10z"/><path d="m36 56h10v10h-10z"/><path d="m36 76h10v10h-10z"/><path d="m56 16h10v10h-10z"/><path d="m56 36h10v10h-10z"/><path d="m56 56h10v10h-10z"/><path d="m56 76h10v10h-10z"/><path d="m76 16h10v10h-10z"/><path d="m76 36h10v10h-10z"/><path d="m76 56h10v10h-10z"/><path d="m76 76h10v10h-10z"/></g></svg>